<?xml version="1.0" encoding="UTF-8" standalone="no"?>
<!-- Created with Inkscape (http://www.inkscape.org/) -->

<svg
   width="600"
   height="750"
   viewBox="0 0 158.75 198.4375"
   version="1.1"
   id="svg5"
   xmlns="http://www.w3.org/2000/svg"
   xmlns:svg="http://www.w3.org/2000/svg">
  <defs
     id="defs2" />
  <g
     id="layer1"
     transform="translate(5e-7,0.33964356)">
    <g
       id="g2917">
      <path
         style="fill:none;stroke:#00c2c2;stroke-width:1.5875;stroke-dasharray:6.35, 3.175;stroke-dashoffset:0;stroke-opacity:1"
         d="M 37.199387,3.8749361 C 35.012802,18.986955 54.041758,29.560318 65.098927,24.799592 104.13522,9.4307975 109.57998,20.186336 114.69811,23.249617 c 9.66453,7.006123 10.40766,15.003512 8.91235,23.249617 -4.8543,29.322116 -29.04203,24.30561 -35.649409,18.987188 -11.355806,-7.301536 -19.042589,-8.488032 -26.737058,-9.68734 -21.820511,-3.05357 -30.721408,3.693947 -34.486935,14.337262 -1.372419,10.717969 -0.120952,21.290167 9.687343,31.386986 9.758484,6.78563 23.260068,18.19787 29.837007,9.68734 11.237315,-12.724853 22.474631,-19.911461 33.711946,-13.949772 9.727986,4.902922 16.318016,2.637053 21.699646,4.649922 11.41273,10.90032 4.21966,21.08309 1.54997,31.38698 -3.39845,9.50517 -6.82661,13.58206 -9.44064,14.61386 -17.812056,8.09242 -37.897405,4.5406 -47.520922,-3.37654 -9.432702,-7.41773 -19.008315,-11.97724 -29.062021,-6.97489 -10.297397,6.02061 -11.556329,19.72419 -3.487441,30.612 10.279352,11.48264 19.068097,19.34431 30.999488,14.33726 37.325556,-15.6758 36.984766,-5.05421 58.504466,0.91578"
         id="path1929" />
      <rect
         style="fill:none;stroke:#00c2c2;stroke-width:0;stroke-dasharray:none;stroke-dashoffset:0;stroke-opacity:1"
         id="rect2913"
         width="158.75"
         height="198.4375"
         x="0"
         y="-0.33964306" />
    </g>
  </g>
</svg>
