<?xml version="1.0" standalone="no"?>
<!DOCTYPE svg PUBLIC "-//W3C//DTD SVG 20010904//EN"
 "http://www.w3.org/TR/2001/REC-SVG-20010904/DTD/svg10.dtd">
<svg version="1.0" xmlns="http://www.w3.org/2000/svg"
 width="700.000000pt" height="700.000000pt" viewBox="0 0 700.000000 700.000000"
 preserveAspectRatio="xMidYMid meet">
<metadata>
Created by potrace 1.14, written by Peter Selinger 2001-2017
</metadata>
<g transform="translate(0.000000,700.000000) scale(0.100000,-0.100000)"
fill="#000000" stroke="none">
<path d="M5203 5448 c-5 -7 -85 -194 -178 -415 -92 -222 -173 -403 -179 -403
-18 0 -212 48 -321 80 -55 16 -154 43 -220 60 -66 17 -163 43 -215 56 -112 30
-334 88 -440 115 -41 11 -82 21 -90 23 -8 2 -130 34 -270 71 -315 82 -487 123
-640 152 -75 14 -312 53 -355 58 -27 4 -79 11 -115 16 -35 6 -91 12 -125 15
-33 2 -69 6 -80 9 -36 7 -277 19 -395 19 -197 0 -357 -14 -560 -49 -279 -49
-533 -162 -688 -309 -189 -178 -288 -510 -232 -774 37 -178 177 -383 345 -506
15 -11 10 -19 -43 -83 -99 -118 -162 -239 -217 -413 -27 -85 -45 -153 -51
-190 -3 -14 -9 -50 -14 -80 -25 -147 -33 -447 -16 -595 37 -338 168 -619 381
-824 249 -238 550 -349 966 -355 349 -5 638 46 942 168 522 209 1003 595 1502
1207 113 139 347 469 481 679 140 218 397 662 510 880 21 41 41 77 44 80 3 3
20 34 38 70 18 36 55 108 83 161 l49 97 42 -10 c47 -11 50 -11 158 -33 116
-23 127 -25 255 -45 109 -17 173 -27 245 -35 191 -24 558 -24 670 -1 14 3 39
8 55 12 126 24 274 96 333 161 86 95 90 233 9 353 -100 147 -360 327 -375 259
-2 -11 22 -36 65 -70 152 -118 197 -186 198 -294 0 -87 -22 -125 -110 -184
-95 -65 -214 -103 -360 -116 -81 -7 -376 -8 -450 -1 -27 3 -90 9 -140 13 -49
4 -94 8 -100 8 -24 3 -122 18 -140 21 -11 3 -38 7 -60 10 -66 10 -77 12 -160
29 -44 10 -81 18 -83 20 -2 1 63 137 144 301 139 281 148 302 148 356 -1 74
-52 182 -103 216 -38 25 -122 31 -138 10z m-3078 -342 c147 -10 218 -16 250
-20 17 -3 57 -8 90 -11 98 -11 482 -76 594 -101 36 -8 82 -18 101 -20 38 -6
1610 -402 1647 -415 11 -4 -127 -326 -247 -574 -271 -562 -390 -777 -623
-1125 -128 -192 -195 -284 -286 -395 -103 -126 -117 -141 -277 -301 -127 -128
-197 -188 -374 -327 -8 -7 -58 -40 -110 -73 -307 -198 -619 -315 -980 -368
-181 -27 -501 -23 -675 8 -151 27 -328 79 -361 107 -8 6 -14 9 -14 6 0 -10
-143 74 -213 125 -62 46 -197 183 -197 200 0 4 -13 26 -29 50 -49 74 -103 212
-136 353 -39 163 -42 500 -6 700 51 285 135 507 243 639 l24 28 89 -45 c155
-79 310 -122 483 -133 65 -5 82 -3 82 7 0 28 -18 40 -75 55 -90 24 -197 69
-347 146 -152 79 -151 78 -71 125 47 27 52 37 26 51 -21 12 -90 -7 -133 -38
l-31 -22 -63 42 c-106 69 -181 152 -239 266 -155 306 46 665 496 886 176 87
330 129 562 153 109 12 134 14 245 21 63 3 116 7 117 8 5 4 354 -3 438 -8z"/>
</g>
</svg>
