<?xml version="1.0" standalone="no"?>
<!DOCTYPE svg PUBLIC "-//W3C//DTD SVG 20010904//EN"
 "http://www.w3.org/TR/2001/REC-SVG-20010904/DTD/svg10.dtd">
<svg version="1.0" xmlns="http://www.w3.org/2000/svg"
 width="560.000000pt" height="560.000000pt" viewBox="0 0 560.000000 560.000000"
 preserveAspectRatio="xMidYMid meet">
<metadata>
Created by potrace 1.14, written by Peter Selinger 2001-2017
</metadata>
<g transform="translate(0.000000,560.000000) scale(0.100000,-0.100000)"
fill="#000000" stroke="none">
<path d="M2745 4770 c-54 -13 -82 -28 -141 -76 -210 -167 -407 -415 -533 -669
-29 -58 -54 -105 -57 -105 -2 0 -32 18 -66 41 -73 47 -277 149 -299 149 -8 0
-19 4 -24 9 -10 9 -108 39 -208 65 -147 37 -277 -27 -326 -160 -22 -58 -65
-260 -76 -354 -7 -64 -7 -294 0 -365 7 -64 34 -220 42 -241 5 -14 -2 -15 -53
-9 -32 4 -70 9 -84 11 -36 6 -278 6 -320 0 -19 -3 -57 -8 -84 -11 -77 -9 -176
-34 -216 -55 -86 -44 -145 -153 -136 -250 10 -100 103 -319 201 -475 335 -533
1045 -970 1770 -1090 203 -34 384 -47 650 -47 314 0 571 20 748 58 9 2 27 6
40 9 151 32 401 110 530 166 352 154 616 327 848 559 200 199 326 381 419 605
91 220 86 334 -19 428 -50 45 -67 52 -186 79 -107 24 -438 34 -548 16 -37 -6
-70 -8 -72 -6 -3 2 0 20 5 39 5 19 11 51 14 72 3 20 8 52 12 71 13 85 19 351
9 426 -2 19 -7 55 -10 80 -13 109 -53 268 -81 321 -36 70 -122 127 -204 134
-116 10 -445 -110 -633 -231 -37 -24 -70 -44 -72 -44 -2 0 -29 50 -59 111 -63
126 -143 252 -224 354 -122 153 -321 337 -399 370 -42 18 -116 25 -158 15z
m98 -181 c68 -36 238 -205 342 -341 218 -287 349 -629 391 -1028 15 -147 11
-416 -11 -570 -3 -22 -8 -59 -11 -82 -10 -76 -64 -280 -101 -378 -119 -321
-335 -621 -581 -808 l-72 -55 -73 56 c-368 283 -628 756 -693 1262 -20 159
-26 462 -11 570 4 22 9 65 12 95 39 332 188 695 399 965 65 83 208 227 279
281 60 45 91 53 130 33z m-1429 -585 c90 -23 132 -38 242 -87 94 -41 277 -147
289 -167 3 -5 -5 -51 -19 -102 -13 -51 -30 -120 -37 -153 -7 -33 -13 -62 -14
-65 -7 -31 -21 -145 -30 -250 -5 -54 -5 -337 -1 -400 31 -415 152 -776 367
-1097 27 -40 46 -73 43 -73 -16 0 -233 187 -335 289 -274 274 -467 563 -599
896 -23 58 -67 190 -76 230 -1 6 -7 33 -14 60 -60 258 -60 549 -1 785 39 156
55 167 185 134z m2909 -8 c32 -34 70 -186 86 -346 8 -76 6 -300 -3 -355 -2
-16 -8 -55 -12 -85 -9 -64 -7 -51 -23 -120 -117 -493 -417 -969 -842 -1334
-59 -50 -128 -107 -155 -126 l-49 -35 37 50 c163 217 312 578 363 880 61 368
42 801 -50 1119 -14 49 -24 95 -21 102 7 17 175 120 265 161 67 31 240 93 296
106 52 12 86 7 108 -17z m-3373 -1109 c14 -2 50 -7 80 -12 74 -10 84 -17 99
-67 29 -98 105 -260 215 -463 21 -38 139 -210 185 -270 208 -269 456 -499 754
-699 32 -21 56 -40 54 -42 -2 -2 -28 0 -58 6 -30 5 -72 12 -93 15 -32 4 -132
25 -196 40 -408 94 -863 327 -1144 585 -130 119 -243 249 -322 371 -89 137
-184 355 -184 423 0 38 29 73 68 82 15 3 43 10 63 15 20 5 68 12 105 15 38 4
70 8 72 9 5 4 270 -3 302 -8z m4090 -2 c152 -25 176 -32 200 -58 27 -28 25
-71 -6 -159 -189 -527 -720 -984 -1409 -1213 -141 -47 -315 -88 -440 -105 -44
-6 -88 -14 -99 -17 -37 -11 -9 16 79 76 489 329 892 828 1084 1341 l39 105 48
12 c25 7 83 15 128 19 44 3 83 8 84 9 6 5 254 -3 292 -10z"/>
</g>
</svg>
